# xmcd
#
# Track frame offsets:
#	150
#	10647
#	27157
#	36937
#	46452
#	57747
#	66917
#	77717
#	89932
#	101385
#	110930
#	128035
#	143842
#	160875
#
# Disc length: 2376 seconds
# Revision: 1
# Processed by: cddbd v1.5.2PL0 Copyright (c) Steve Scherf et al.
# Submitted via: dBpowerAMP V12.0
#
DISCID=c509460e
DTITLE=Adauto Santos - Brasil Viola
DYEAR=1997
DGENRE=Sertanejo
TTITLE0=Pagode
TTITLE1=Ponteio
TTITLE2=Coração De luto
TTITLE3=Prenda Minha
TTITLE4=Ferreirinha
TTITLE5=Mourão De Porteira
TTITLE6=De Papo Pro Á
TTITLE7=Recordação
TTITLE8=Ave Maria
TTITLE9=Mágoa De Boiadeiro
TTITLE10=No Rancho Fundo
TTITLE11=Flor No Cafezal
TTITLE12=Doce De Cidra
TTITLE13=Cantiga A Moda Mineira
EXTD=
EXTT0=
EXTT1=
EXTT2=
EXTT3=
EXTT4=
EXTT5=
EXTT6=
EXTT7=
EXTT8=
EXTT9=
EXTT10=
EXTT11=
EXTT12=
EXTT13=
PLAYORDER=
